<?xml version="1.0" standalone="no"?><!-- Generator: Gravit.io --><svg xmlns="http://www.w3.org/2000/svg" xmlns:xlink="http://www.w3.org/1999/xlink" style="isolation:isolate" viewBox="28.5 48 143 94" width="143" height="94"><rect x="30.5" y="50" width="139" height="90" transform="matrix(1,0,0,1,0,0)" fill="rgba(0,0,0,0)" stroke-width="4" stroke="rgb(0,0,0)" stroke-linejoin="miter" stroke-linecap="square"/><rect x="30.5" y="50" width="139" height="32.8125" transform="matrix(1,0,0,1,0,0)" fill="rgba(0,0,0,0)" stroke-width="4" stroke="rgb(0,0,0)" stroke-linejoin="miter" stroke-linecap="square"/><circle vector-effect="non-scaling-stroke" cx="0" cy="0" r="1" fill="rgba(0,0,0,0)" transform="matrix(8,0,0,8.000000000000002,100,67)" stroke-width="4" stroke="rgb(0,0,0)"/><circle vector-effect="non-scaling-stroke" cx="0" cy="0" r="1" fill="rgba(0,0,0,0)" transform="matrix(8,0,0,8.000000000000002,100,101)" stroke-width="4" stroke="rgb(0,0,0)"/><line x1="94.78795060616434" y1="73.74605247835456" x2="106.39304891373911" y2="96.09949686945495" stroke-width="4" stroke="rgb(0,0,0)" stroke-linejoin="miter" stroke-linecap="square"/><line x1="105.06897729475408" y1="74.1354853074678" x2="94.47640434287376" y2="94.54176555300197" stroke-width="4" stroke="rgb(0,0,0)" stroke-linejoin="miter" stroke-linecap="square"/><circle vector-effect="non-scaling-stroke" cx="0" cy="0" r="1" fill="rgb(0,0,0)" transform="matrix(2,0,0,2,100,101)" stroke-width="0" stroke="rgba(0,0,0,0)"/><circle vector-effect="non-scaling-stroke" cx="0" cy="0" r="1" fill="rgb(0,0,0)" transform="matrix(2,0,0,2,100,67)" stroke-width="0" stroke="rgba(0,0,0,0)"/></svg>